<svg width="244" height="52" viewBox="0 0 244 52" fill="none" xmlns="http://www.w3.org/2000/svg">
<g clip-path="url(#clip0_922215_30)">
<path d="M81.2592 39.2C79.8733 38.6988 78.8044 38.0612 78.0476 37.2823L78.5017 36.68C79.2561 37.407 80.2706 38.0141 81.543 38.5035C82.8153 38.9929 84.1941 39.2376 85.6793 39.2376C87.8952 39.2376 89.5317 38.8564 90.5912 38.0917C91.6484 37.327 92.1781 36.2682 92.1781 34.9153C92.1781 33.9388 91.8943 33.167 91.3291 32.6047C90.7615 32.04 90.0686 31.6282 89.2503 31.3647C88.4321 31.1012 87.304 30.8329 85.8685 30.5576C84.3312 30.2823 83.092 29.9882 82.1484 29.6753C81.2048 29.3623 80.4102 28.8612 79.7693 28.1717C79.1284 27.4823 78.8068 26.5247 78.8068 25.2964C78.8068 23.8941 79.3933 22.7082 80.5639 21.7435C81.7345 20.7788 83.4539 20.2964 85.7195 20.2964C86.9279 20.2964 88.1246 20.4776 89.3071 20.8423C90.4895 21.207 91.4473 21.687 92.1781 22.2894L91.724 22.8917C90.9673 22.2894 90.0615 21.8282 89.0044 21.5012C87.9472 21.1764 86.8499 21.0117 85.7171 21.0117C83.6762 21.0117 82.146 21.407 81.1268 22.1953C80.1075 22.9835 79.5966 24.0188 79.5966 25.2964C79.5966 26.3247 79.8852 27.1317 80.4646 27.72C81.044 28.3082 81.7606 28.7412 82.619 29.0164C83.4751 29.2917 84.6079 29.5553 86.0198 29.8047C87.5547 30.1059 88.7773 30.407 89.6831 30.7059C90.5889 31.007 91.3575 31.4894 91.9889 32.1529C92.618 32.8164 92.9325 33.7388 92.9325 34.9153C92.9325 36.4447 92.3153 37.6659 91.0808 38.5812C89.8463 39.4964 88.0466 39.9529 85.6793 39.9529C84.1184 39.9529 82.645 39.7035 81.2592 39.2Z" fill="#DEDEDE"/>
<path d="M114.465 30.1059H97.0877C97.0877 31.8612 97.4779 33.4329 98.2584 34.8235C99.0388 36.2141 100.115 37.2988 101.489 38.0753C102.861 38.8517 104.402 39.24 106.117 39.24C107.451 39.24 108.704 38.9835 109.875 38.4706C111.046 37.9576 112.01 37.2117 112.765 36.2353L113.295 36.7623C112.439 37.7906 111.381 38.5788 110.121 39.1294C108.86 39.68 107.527 39.9553 106.117 39.9553C104.253 39.9553 102.584 39.5364 101.11 38.6964C99.6371 37.8564 98.4783 36.6847 97.634 35.1812C96.7897 33.6776 96.3688 31.9859 96.3688 30.1082C96.3688 28.2306 96.759 26.5435 97.5394 25.0517C98.3199 23.5623 99.3959 22.3953 100.77 21.5553C102.142 20.7153 103.684 20.2964 105.398 20.2964C107.113 20.2964 108.622 20.7106 110.007 21.5364C111.393 22.3623 112.481 23.5035 113.276 24.9576C114.07 26.4117 114.465 28.0659 114.465 29.92V30.1082V30.1059ZM101.281 22.1012C100.046 22.8282 99.0577 23.8306 98.3151 25.1082C97.5725 26.3859 97.1634 27.8141 97.0877 29.3929H113.749C113.673 27.8141 113.257 26.3859 112.502 25.1082C111.748 23.8306 110.752 22.8282 109.518 22.1012C108.283 21.3741 106.912 21.0117 105.4 21.0117C103.889 21.0117 102.515 21.3741 101.283 22.1012H101.281Z" fill="#DEDEDE"/>
<path d="M131.713 22.0423C132.909 23.207 133.508 24.8941 133.508 27.0988V39.84H132.753V35.7059C132.124 37.0353 131.174 38.0729 129.901 38.8259C128.629 39.5764 127.099 39.9529 125.311 39.9529C123.145 39.9529 121.451 39.4588 120.229 38.4682C119.006 37.4776 118.396 36.1576 118.396 34.5035C118.396 32.9506 118.944 31.6917 120.039 30.727C121.134 29.7623 122.903 29.28 125.346 29.28H132.751V27.1388C132.751 25.1082 132.228 23.5812 131.183 22.5529C130.138 21.5247 128.596 21.0117 126.555 21.0117C125.143 21.0117 123.828 21.2564 122.608 21.7435C121.385 22.2329 120.335 22.8894 119.453 23.7176L118.923 23.1906C119.855 22.2894 120.988 21.5812 122.324 21.0659C123.658 20.5529 125.055 20.2964 126.517 20.2964C128.783 20.2964 130.514 20.88 131.71 22.0447L131.713 22.0423ZM132.751 34.2776V29.9929H125.308C123.192 29.9929 121.638 30.3929 120.642 31.1953C119.647 31.9976 119.15 33.087 119.15 34.4659C119.15 35.9459 119.692 37.1106 120.775 37.9623C121.858 38.8141 123.369 39.24 125.308 39.24C128.934 39.24 131.415 37.5859 132.751 34.2776Z" fill="#DEDEDE"/>
<path d="M145.519 21.6282C146.829 20.7388 148.452 20.2941 150.393 20.2941V21.0447H150.166C147.825 21.0447 145.997 21.7905 144.689 23.28C143.379 24.7717 142.724 26.807 142.724 29.3882V39.8376H141.967V20.4047H142.724V25.4423C143.277 23.7882 144.209 22.5176 145.519 21.6282Z" fill="#DEDEDE"/>
<path d="M158.212 38.6941C156.75 37.8541 155.61 36.6894 154.792 35.1976C153.974 33.7082 153.565 32.0094 153.565 30.1058C153.565 28.2023 153.974 26.5035 154.792 25.0117C155.61 23.5223 156.75 22.3623 158.212 21.5341C159.673 20.7082 161.322 20.2941 163.162 20.2941C164.597 20.2941 165.926 20.5647 167.147 21.1011C168.367 21.6399 169.382 22.4235 170.188 23.4494L169.658 24.0141C168.927 23.0117 167.996 22.2611 166.863 21.76C165.73 21.2588 164.496 21.0094 163.162 21.0094C161.476 21.0094 159.957 21.3905 158.609 22.1552C157.261 22.92 156.211 23.9976 155.454 25.3882C154.698 26.7788 154.322 28.3505 154.322 30.1058C154.322 31.8611 154.7 33.4635 155.454 34.8423C156.209 36.2211 157.261 37.2988 158.609 38.0752C159.957 38.8517 161.473 39.24 163.162 39.24C164.496 39.24 165.73 38.9905 166.863 38.4894C167.996 37.9882 168.927 37.2376 169.658 36.2352L170.188 36.7999C169.382 37.8282 168.367 38.6094 167.147 39.1482C165.924 39.687 164.597 39.9552 163.162 39.9552C161.322 39.9552 159.673 39.5364 158.212 38.6964V38.6941Z" fill="#DEDEDE"/>
<path d="M190.777 22.3811C192.163 23.7717 192.856 25.7694 192.856 28.3764V39.84H192.101V28.3764C192.101 25.9953 191.491 24.1741 190.269 22.9082C189.046 21.6423 187.315 21.0094 185.075 21.0094C182.531 21.0094 180.523 21.767 179.049 23.2823C177.576 24.7976 176.841 26.7976 176.841 29.2776V39.84H176.084V11.9506H176.841V25.5953C177.444 23.9411 178.451 22.6447 179.863 21.7059C181.272 20.767 182.999 20.2964 185.037 20.2964C187.48 20.2964 189.394 20.9929 190.779 22.3835L190.777 22.3811Z" fill="#DEDEDE"/>
<path d="M217.106 30.1059H199.728C199.728 31.8612 200.119 33.4329 200.899 34.8235C201.679 36.2141 202.755 37.2988 204.129 38.0753C205.501 38.8517 207.045 39.24 208.758 39.24C210.091 39.24 211.345 38.9835 212.516 38.4706C213.686 37.9576 214.651 37.2117 215.405 36.2353L215.935 36.7623C215.079 37.7906 214.022 38.5788 212.761 39.1294C211.501 39.68 210.167 39.9553 208.758 39.9553C206.894 39.9553 205.224 39.5364 203.753 38.6964C202.28 37.8564 201.121 36.6847 200.277 35.1812C199.433 33.6776 199.012 31.9859 199.012 30.1082C199.012 28.2306 199.402 26.5435 200.182 25.0517C200.963 23.5623 202.039 22.3953 203.413 21.5553C204.785 20.7153 206.329 20.2964 208.041 20.2964C209.753 20.2964 211.264 20.7106 212.65 21.5364C214.036 22.3623 215.124 23.5035 215.919 24.9576C216.713 26.4117 217.108 28.0659 217.108 29.92V30.1082L217.106 30.1059ZM203.921 22.1012C202.687 22.8282 201.698 23.8306 200.956 25.1082C200.213 26.3859 199.804 27.8141 199.728 29.3929H216.389C216.314 27.8141 215.897 26.3859 215.143 25.1082C214.389 23.8306 213.393 22.8282 212.158 22.1012C210.924 21.3741 209.552 21.0117 208.041 21.0117C206.53 21.0117 205.156 21.3741 203.924 22.1012H203.921Z" fill="#DEDEDE"/>
<path d="M227.043 21.6282C228.354 20.7388 229.976 20.2941 231.918 20.2941V21.0447H231.691C229.349 21.0447 227.521 21.7905 226.213 23.28C224.903 24.7717 224.25 26.807 224.25 29.3882V39.8376H223.494V20.4047H224.25V25.4423C224.804 23.7882 225.736 22.5176 227.046 21.6282H227.043Z" fill="#DEDEDE"/>
<path d="M21.1189 39.8235H22.4031L23.8764 32.4565H29.0911L33.2463 39.8235H39.7073L35.098 31.7035C37.4653 30.9788 39.3147 29.7365 40.6509 27.9835C41.9847 26.2306 42.654 24.1247 42.654 21.6682C42.654 19.0894 41.7459 17.0824 39.932 15.6541C38.1204 14.2259 35.5758 13.5129 32.3027 13.5129H26.4093L21.126 39.7906M34.7764 26.2165C33.6554 27.1435 32.0756 27.6071 30.0347 27.6071H24.8224L26.6741 18.4729H31.5081C33.0949 18.4729 34.3176 18.7882 35.1737 19.4141C36.0298 20.04 36.4579 20.9788 36.4579 22.2329C36.4579 23.9624 35.8974 25.2894 34.7764 26.2165Z" fill="#DEDEDE"/>
<path d="M68.2686 18.4L69.2879 13.5129H49.3042L44.0138 39.8235H64.4894L65.5111 34.9365H51.0779L52.2887 28.8471H64.6029L65.5489 24.1129H53.2702L54.403 18.4H68.2686Z" fill="#DEDEDE"/>
<path d="M72.8755 35.5953C72.4238 35.1317 71.8562 34.8988 71.1775 34.8988C70.4207 34.8988 69.7845 35.1553 69.269 35.6706C68.7534 36.1835 68.4933 36.8423 68.4933 37.6423C68.4933 38.32 68.7274 38.8894 69.1933 39.3529C69.6592 39.8164 70.2315 40.0494 70.9126 40.0494C71.6434 40.0494 72.2654 39.7929 72.7809 39.2776C73.2988 38.7647 73.5566 38.12 73.5566 37.3412C73.5566 36.64 73.3296 36.0588 72.8755 35.5953ZM75.9357 20.4094C75.484 19.9459 74.9165 19.7153 74.2354 19.7153C73.4809 19.7153 72.8448 19.9717 72.3292 20.4847C71.8113 20.9976 71.5535 21.6564 71.5535 22.4588C71.5535 23.1341 71.7876 23.7059 72.2535 24.1694C72.7194 24.6329 73.2917 24.8635 73.9728 24.8635C74.7012 24.8635 75.3256 24.607 75.8411 24.0941C76.3591 23.5788 76.6168 22.9341 76.6168 22.1576C76.6168 21.4564 76.3898 20.8729 75.9357 20.4094Z" fill="#DEDEDE"/>
<path d="M19.8512 13.4282H24.7727L19.4729 39.7906H14.5514L19.8512 13.4282ZM17.8174 13.4282H18.5742L13.2744 39.7906H12.5176L17.8174 13.4282Z" fill="#36DB71"/>
</g>
<defs>
<clipPath id="clip0_922215_30">
<rect width="244" height="52" fill="white"/>
</clipPath>
</defs>
</svg>
