<?xml version="1.0" encoding="UTF-8"?>
<svg id="Layer_2" data-name="Layer 2" xmlns="http://www.w3.org/2000/svg" viewBox="0 0 22.6 21.57">
  <defs>
    <style>
      .cls-1 {
        fill: #36db71;
        stroke-width: 0px;
      }
    </style>
  </defs>
  <g id="Layer_1-2" data-name="Layer 1">
    <path class="cls-1" d="m0,0h2.21v21.57H0V0Zm17.59,10.28c-.59-.34-1.18-.68-1.76-1.02-2.16-1.24-4.32-2.48-6.46-3.74-.47-.27-.96.01-.93.55.04.49,0,1,.01,1.5,0,.36.19.69.5.86.96.53,1.9,1.08,2.86,1.6.31.17.52.4.52.76s-.21.59-.52.76c-.95.52-1.89,1.06-2.84,1.59-.32.18-.52.51-.52.88v1.5c0,.59.41.82.92.53,2.74-1.58,5.48-3.17,8.22-4.75.49-.28.49-.74,0-1.02Zm5.01-7.28v15.57c0,1.66-1.34,3-3,3H3.79V0h15.81c1.66,0,3,1.34,3,3Zm-4.31,6.22c-2.79-1.62-5.59-3.24-8.39-4.84-1.23-.71-2.71.15-2.72,1.57,0,.54-.01,1.08,0,1.61.02.82.46,1.56,1.16,1.98.37.22.76.42,1.13.63.35.2.7.39,1.09.61-.77.43-1.5.83-2.23,1.24s-1.14,1.14-1.15,1.95c-.01.54,0,1.1,0,1.64,0,1.38,1.48,2.26,2.68,1.6.61-.34,1.22-.69,1.84-1.05,2.19-1.26,4.38-2.52,6.57-3.8,1.25-.72,1.26-2.43.02-3.15Z"/>
  </g>
</svg>