<?xml version="1.0" encoding="UTF-8"?>
<svg id="Layer_2" data-name="Layer 2" xmlns="http://www.w3.org/2000/svg" viewBox="0 0 287.46 169.32">
  <defs>
    <style>
      .cls-1 {
        fill: none;
      }

      .cls-1, .cls-2, .cls-3 {
        stroke-width: 0px;
      }

      .cls-2 {
        fill: #dedede;
      }

      .cls-3 {
        fill: #36db71;
      }
    </style>
  </defs>
  <g id="Layer_2-2" data-name="Layer 2">
    <g id="LogoNegativeMini">
      <rect class="cls-1" width="287.46" height="169.32"/>
      <g>
        <g>
          <path class="cls-2" d="m68.42,129.67h4.16l4.77-23.99h16.89l13.46,23.99h20.93l-14.93-26.44c7.67-2.36,13.66-6.4,17.99-12.11,4.32-5.71,6.49-12.56,6.49-20.56,0-8.4-2.94-14.93-8.82-19.58-5.87-4.65-14.11-6.97-24.72-6.97h-19.09l-17.12,85.56m44.22-44.2c-3.63,3.02-8.75,4.53-15.36,4.53h-16.89l6-29.74h15.66c5.14,0,9.1,1.03,11.88,3.06,2.77,2.04,4.16,5.09,4.16,9.18,0,5.63-1.82,9.95-5.45,12.97Z"/>
          <path class="cls-2" d="m221.16,59.91l3.3-15.91h-64.74l-17.14,85.67h66.33l3.31-15.91h-46.76l3.92-19.83h39.89l3.06-15.41h-39.78l3.67-18.6h44.92Z"/>
          <path class="cls-2" d="m236.08,115.9c-1.46-1.51-3.3-2.27-5.5-2.27-2.45,0-4.51.84-6.18,2.51-1.67,1.67-2.51,3.82-2.51,6.42,0,2.21.76,4.06,2.27,5.57,1.51,1.51,3.36,2.27,5.57,2.27,2.37,0,4.38-.84,6.05-2.51,1.68-1.67,2.51-3.77,2.51-6.31,0-2.28-.74-4.18-2.21-5.68Zm9.91-49.45c-1.46-1.51-3.3-2.26-5.51-2.26-2.44,0-4.51.84-6.18,2.51-1.68,1.67-2.51,3.82-2.51,6.43,0,2.2.76,4.06,2.27,5.57,1.51,1.51,3.36,2.26,5.57,2.26,2.36,0,4.38-.84,6.05-2.51,1.68-1.68,2.51-3.78,2.51-6.31,0-2.28-.74-4.18-2.21-5.69Z"/>
        </g>
        <path class="cls-3" d="m64.31,43.72h15.94l-17.17,85.84h-15.94l17.17-85.84Zm-6.59,0h2.45l-17.17,85.84h-2.45l17.17-85.84Z"/>
      </g>
    </g>
  </g>
</svg>