<?xml version="1.0" encoding="UTF-8"?>
<svg id="Layer_2" data-name="Layer 2" xmlns="http://www.w3.org/2000/svg" viewBox="0 0 790.46 169.32">
  <defs>
    <style>
      .cls-1 {
        fill: none;
      }

      .cls-1, .cls-2 {
        stroke-width: 0px;
      }

      .cls-2 {
        fill: #fff;
      }
    </style>
  </defs>
  <g id="Layer_2-2" data-name="Layer 2">
    <g id="LogoWhite">
      <rect class="cls-1" width="790.46" height="169.32"/>
      <g>
        <g>
          <path class="cls-2" d="m263.25,127.64c-4.49-1.63-7.95-3.71-10.4-6.24l1.47-1.96c2.45,2.37,5.73,4.34,9.85,5.94,4.12,1.59,8.59,2.39,13.4,2.39,7.18,0,12.48-1.24,15.91-3.73,3.43-2.49,5.14-5.94,5.14-10.34,0-3.18-.92-5.69-2.75-7.53-1.84-1.84-4.08-3.18-6.73-4.04-2.65-.86-6.3-1.73-10.95-2.63-4.98-.9-9-1.85-12.05-2.88-3.06-1.02-5.63-2.65-7.71-4.9-2.08-2.24-3.12-5.36-3.12-9.36,0-4.57,1.9-8.42,5.69-11.57,3.79-3.14,9.36-4.71,16.71-4.71,3.92,0,7.79.59,11.63,1.77,3.83,1.18,6.93,2.75,9.3,4.71l-1.47,1.96c-2.45-1.96-5.39-3.47-8.81-4.53-3.43-1.06-6.98-1.59-10.65-1.59-6.61,0-11.57,1.29-14.87,3.86s-4.96,5.94-4.96,10.1c0,3.35.94,5.98,2.81,7.89,1.88,1.92,4.2,3.33,6.98,4.22,2.77.9,6.44,1.76,11.01,2.57,4.98.98,8.93,1.96,11.87,2.94,2.94.98,5.43,2.55,7.47,4.71,2.04,2.16,3.06,5.16,3.06,9,0,4.98-2,8.96-6,11.93-4,2.98-9.83,4.47-17.5,4.47-5.06,0-9.83-.81-14.32-2.45Z"/>
          <path class="cls-2" d="m370.83,98.03h-56.3c0,5.71,1.26,10.83,3.79,15.36,2.53,4.53,6.02,8.06,10.46,10.59,4.45,2.53,9.44,3.79,14.99,3.79,4.32,0,8.38-.84,12.18-2.51,3.79-1.67,6.91-4.1,9.36-7.28l1.71,1.71c-2.77,3.35-6.2,5.92-10.28,7.71-4.08,1.8-8.4,2.69-12.97,2.69-6.04,0-11.44-1.37-16.22-4.1-4.77-2.73-8.53-6.55-11.26-11.44-2.73-4.9-4.1-10.4-4.1-16.52s1.26-11.61,3.79-16.46c2.53-4.85,6.02-8.65,10.46-11.38,4.45-2.73,9.44-4.1,14.99-4.1s10.44,1.35,14.93,4.04c4.49,2.69,8.02,6.41,10.59,11.14,2.57,4.73,3.86,10.12,3.86,16.15v.61Zm-42.71-26.07c-4,2.37-7.2,5.63-9.61,9.79-2.41,4.16-3.73,8.81-3.98,13.95h53.97c-.24-5.14-1.59-9.79-4.04-13.95-2.45-4.16-5.67-7.42-9.67-9.79-4-2.37-8.44-3.55-13.34-3.55s-9.34,1.18-13.34,3.55Z"/>
          <path class="cls-2" d="m426.69,71.77c3.87,3.79,5.81,9.28,5.81,16.46v41.49h-2.45v-13.46c-2.04,4.33-5.12,7.71-9.24,10.16-4.12,2.45-9.08,3.67-14.87,3.67-7.02,0-12.51-1.61-16.46-4.83-3.96-3.22-5.93-7.53-5.93-12.91,0-5.06,1.77-9.16,5.32-12.3,3.55-3.14,9.28-4.71,17.19-4.71h23.99v-6.98c0-6.61-1.69-11.58-5.08-14.93-3.39-3.34-8.38-5.02-14.99-5.02-4.57,0-8.83.8-12.79,2.39-3.96,1.59-7.36,3.73-10.22,6.43l-1.71-1.71c3.02-2.94,6.69-5.24,11.01-6.91,4.32-1.67,8.85-2.51,13.58-2.51,7.34,0,12.95,1.9,16.83,5.69Zm3.37,39.84v-13.95h-24.11c-6.85,0-11.89,1.31-15.11,3.92-3.22,2.61-4.83,6.16-4.83,10.65,0,4.82,1.75,8.61,5.26,11.38,3.51,2.77,8.4,4.16,14.69,4.16,11.75,0,19.78-5.38,24.11-16.15Z"/>
          <path class="cls-2" d="m471.42,70.43c4.24-2.9,9.5-4.34,15.79-4.34v2.45h-.73c-7.59,0-13.5,2.43-17.75,7.28-4.24,4.86-6.36,11.49-6.36,19.89v34.02h-2.45v-63.27h2.45v16.4c1.79-5.38,4.81-9.52,9.06-12.42Z"/>
          <path class="cls-2" d="m512.54,125.99c-4.73-2.73-8.42-6.53-11.08-11.38-2.65-4.85-3.98-10.38-3.98-16.58s1.33-11.73,3.98-16.58c2.65-4.85,6.34-8.63,11.08-11.32,4.73-2.69,10.08-4.04,16.03-4.04,4.65,0,8.95.88,12.91,2.63,3.96,1.76,7.24,4.3,9.85,7.65l-1.71,1.84c-2.37-3.26-5.39-5.71-9.06-7.34-3.67-1.63-7.67-2.45-11.99-2.45-5.47,0-10.38,1.24-14.75,3.73-4.37,2.49-7.77,6-10.22,10.52-2.45,4.53-3.67,9.65-3.67,15.36s1.22,10.93,3.67,15.42c2.45,4.49,5.85,8,10.22,10.52,4.36,2.53,9.28,3.79,14.75,3.79,4.32,0,8.32-.81,11.99-2.45,3.67-1.63,6.69-4.08,9.06-7.34l1.71,1.84c-2.61,3.35-5.9,5.89-9.85,7.65-3.96,1.76-8.26,2.63-12.91,2.63-5.96,0-11.3-1.37-16.03-4.1Z"/>
          <path class="cls-2" d="m618.04,72.88c4.49,4.53,6.73,11.04,6.73,19.52v37.33h-2.45v-37.33c0-7.75-1.98-13.69-5.94-17.81-3.96-4.12-9.57-6.18-16.83-6.18-8.24,0-14.75,2.47-19.52,7.4-4.77,4.94-7.16,11.44-7.16,19.52v34.39h-2.45V38.91h2.45v44.43c1.96-5.39,5.22-9.61,9.79-12.67,4.57-3.06,10.16-4.59,16.77-4.59,7.91,0,14.12,2.26,18.6,6.79Z"/>
          <path class="cls-2" d="m703.34,98.03h-56.3c0,5.71,1.26,10.83,3.79,15.36,2.53,4.53,6.02,8.06,10.46,10.59,4.45,2.53,9.44,3.79,14.99,3.79,4.32,0,8.38-.84,12.18-2.51,3.79-1.67,6.91-4.1,9.36-7.28l1.71,1.71c-2.77,3.35-6.2,5.92-10.28,7.71-4.08,1.8-8.41,2.69-12.97,2.69-6.04,0-11.44-1.37-16.21-4.1-4.77-2.73-8.53-6.55-11.26-11.44-2.73-4.9-4.1-10.4-4.1-16.52s1.26-11.61,3.79-16.46c2.53-4.85,6.02-8.65,10.46-11.38,4.45-2.73,9.44-4.1,14.99-4.1s10.44,1.35,14.93,4.04c4.49,2.69,8.02,6.41,10.59,11.14,2.57,4.73,3.85,10.12,3.85,16.15v.61Zm-42.71-26.07c-4,2.37-7.2,5.63-9.61,9.79-2.41,4.16-3.73,8.81-3.98,13.95h53.97c-.24-5.14-1.59-9.79-4.04-13.95-2.45-4.16-5.67-7.42-9.67-9.79-4-2.37-8.44-3.55-13.34-3.55s-9.34,1.18-13.34,3.55Z"/>
          <path class="cls-2" d="m735.53,70.43c4.24-2.9,9.5-4.34,15.79-4.34v2.45h-.73c-7.59,0-13.5,2.43-17.75,7.28-4.24,4.86-6.36,11.49-6.36,19.89v34.02h-2.45v-63.27h2.45v16.4c1.79-5.38,4.81-9.52,9.06-12.42Z"/>
        </g>
        <g>
          <g>
            <path class="cls-2" d="m68.42,129.67h4.16l4.77-23.99h16.89l13.46,23.99h20.93l-14.93-26.44c7.67-2.36,13.66-6.4,17.99-12.11,4.32-5.71,6.49-12.56,6.49-20.56,0-8.4-2.94-14.93-8.82-19.58-5.87-4.65-14.11-6.97-24.72-6.97h-19.09l-17.12,85.56m44.22-44.2c-3.63,3.02-8.75,4.53-15.36,4.53h-16.89l6-29.74h15.66c5.14,0,9.1,1.03,11.88,3.06,2.77,2.04,4.16,5.09,4.16,9.18,0,5.63-1.82,9.95-5.45,12.97Z"/>
            <path class="cls-2" d="m221.16,59.91l3.3-15.91h-64.74l-17.14,85.67h66.33l3.31-15.91h-46.76l3.92-19.83h39.89l3.06-15.41h-39.78l3.67-18.6h44.92Z"/>
            <path class="cls-2" d="m236.08,115.9c-1.46-1.51-3.3-2.27-5.5-2.27-2.45,0-4.51.84-6.18,2.51-1.67,1.67-2.51,3.82-2.51,6.42,0,2.21.76,4.06,2.27,5.57,1.51,1.51,3.36,2.27,5.57,2.27,2.37,0,4.38-.84,6.05-2.51,1.68-1.67,2.51-3.77,2.51-6.31,0-2.28-.74-4.18-2.21-5.68Zm9.91-49.45c-1.46-1.51-3.3-2.26-5.51-2.26-2.44,0-4.51.84-6.18,2.51-1.68,1.67-2.51,3.82-2.51,6.43,0,2.2.76,4.06,2.27,5.57,1.51,1.51,3.36,2.26,5.57,2.26,2.36,0,4.38-.84,6.05-2.51,1.68-1.68,2.51-3.78,2.51-6.31,0-2.28-.74-4.18-2.21-5.69Z"/>
          </g>
          <path class="cls-2" d="m64.31,43.72h15.94l-17.17,85.84h-15.94l17.17-85.84Zm-6.59,0h2.45l-17.17,85.84h-2.45l17.17-85.84Z"/>
        </g>
      </g>
    </g>
  </g>
</svg>